<mxfile host="app.diagrams.net" agent="Mozilla/5.0 (Windows NT 10.0; Win64; x64) AppleWebKit/537.36 (KHTML, like Gecko) Chrome/131.0.0.0 Safari/537.36 Edg/131.0.0.0" version="26.0.3">
  <diagram id="M13nzgHDiBsrt1ZgYOBN" name="Страница 1">
    <mxGraphModel dx="1290" dy="611" grid="1" gridSize="10" guides="1" tooltips="1" connect="1" arrows="1" fold="1" page="1" pageScale="1" pageWidth="827" pageHeight="1169" math="0" shadow="0">
      <root>
        <mxCell id="0" />
        <mxCell id="1" parent="0" />
        <mxCell id="l2btpocBM2kwRpMdsqXY-9" value="" style="rounded=0;whiteSpace=wrap;html=1;fillColor=none;" parent="1" vertex="1">
          <mxGeometry x="180" y="250" width="520" height="600" as="geometry" />
        </mxCell>
        <mxCell id="fY_PwHqfxWm9hgMFCMMJ-108" value="Сайт факультативных курсов" style="text;html=1;strokeColor=none;fillColor=none;align=center;verticalAlign=middle;whiteSpace=wrap;rounded=0;shadow=0;glass=0;sketch=0;strokeWidth=1;movable=1;resizable=1;rotatable=1;deletable=1;editable=1;connectable=1;locked=0;" parent="1" vertex="1">
          <mxGeometry x="330" y="220" width="193.5" height="30" as="geometry" />
        </mxCell>
        <mxCell id="l2btpocBM2kwRpMdsqXY-12" style="rounded=0;orthogonalLoop=1;jettySize=auto;html=1;exitX=1;exitY=0.3333333333333333;exitDx=0;exitDy=0;exitPerimeter=0;entryX=0;entryY=0.5;entryDx=0;entryDy=0;endArrow=none;endFill=0;" parent="1" source="fY_PwHqfxWm9hgMFCMMJ-110" target="l2btpocBM2kwRpMdsqXY-6" edge="1">
          <mxGeometry relative="1" as="geometry" />
        </mxCell>
        <mxCell id="fY_PwHqfxWm9hgMFCMMJ-110" value="Преподаватель" style="shape=umlActor;verticalLabelPosition=bottom;verticalAlign=top;html=1;outlineConnect=0;shadow=0;glass=0;sketch=0;strokeColor=default;strokeWidth=1;fillColor=default;gradientColor=none;" parent="1" vertex="1">
          <mxGeometry x="100" y="390" width="30" height="60" as="geometry" />
        </mxCell>
        <mxCell id="fY_PwHqfxWm9hgMFCMMJ-111" value="Студент" style="shape=umlActor;verticalLabelPosition=bottom;verticalAlign=top;html=1;outlineConnect=0;shadow=0;glass=0;sketch=0;strokeColor=default;strokeWidth=1;fillColor=default;gradientColor=none;" parent="1" vertex="1">
          <mxGeometry x="120" y="665" width="30" height="60" as="geometry" />
        </mxCell>
        <mxCell id="l2btpocBM2kwRpMdsqXY-1" style="edgeStyle=orthogonalEdgeStyle;rounded=0;orthogonalLoop=1;jettySize=auto;html=1;entryX=1;entryY=0.5;entryDx=0;entryDy=0;endArrow=none;endFill=0;" parent="1" source="dTrDrg-PLD4O0svyLezm-3" target="fY_PwHqfxWm9hgMFCMMJ-130" edge="1">
          <mxGeometry relative="1" as="geometry">
            <mxPoint x="760" y="590" as="sourcePoint" />
          </mxGeometry>
        </mxCell>
        <mxCell id="l2btpocBM2kwRpMdsqXY-5" style="rounded=0;orthogonalLoop=1;jettySize=auto;html=1;entryX=1;entryY=0.5;entryDx=0;entryDy=0;endArrow=none;endFill=0;" parent="1" target="fY_PwHqfxWm9hgMFCMMJ-113" edge="1">
          <mxGeometry relative="1" as="geometry">
            <mxPoint x="760" y="594.9180327868853" as="sourcePoint" />
          </mxGeometry>
        </mxCell>
        <mxCell id="l2btpocBM2kwRpMdsqXY-11" style="rounded=0;orthogonalLoop=1;jettySize=auto;html=1;entryX=1;entryY=0.5;entryDx=0;entryDy=0;endArrow=none;endFill=0;" parent="1" target="l2btpocBM2kwRpMdsqXY-6" edge="1">
          <mxGeometry relative="1" as="geometry">
            <mxPoint x="760" y="584.6226415094341" as="sourcePoint" />
          </mxGeometry>
        </mxCell>
        <mxCell id="l2btpocBM2kwRpMdsqXY-3" value="&lt;span style=&quot;color: rgb(0, 0, 0); font-family: Helvetica; font-size: 11px; font-style: normal; font-variant-ligatures: normal; font-variant-caps: normal; font-weight: 400; letter-spacing: normal; orphans: 2; text-align: center; text-indent: 0px; text-transform: none; widows: 2; word-spacing: 0px; -webkit-text-stroke-width: 0px; white-space: nowrap; text-decoration-thickness: initial; text-decoration-style: initial; text-decoration-color: initial; float: none; display: inline !important;&quot;&gt;&amp;lt;&amp;lt;include&amp;gt;&amp;gt;&lt;/span&gt;&lt;div&gt;&lt;br/&gt;&lt;/div&gt;" style="edgeStyle=orthogonalEdgeStyle;rounded=0;orthogonalLoop=1;jettySize=auto;html=1;entryX=0.5;entryY=0;entryDx=0;entryDy=0;labelBackgroundColor=none;dashed=1;" parent="1" source="fY_PwHqfxWm9hgMFCMMJ-113" target="fY_PwHqfxWm9hgMFCMMJ-115" edge="1">
          <mxGeometry relative="1" as="geometry" />
        </mxCell>
        <mxCell id="fY_PwHqfxWm9hgMFCMMJ-113" value="Запись на курс" style="ellipse;whiteSpace=wrap;html=1;shadow=0;glass=0;sketch=0;strokeColor=default;strokeWidth=1;fillColor=default;gradientColor=none;" parent="1" vertex="1">
          <mxGeometry x="379.5" y="690" width="121" height="60" as="geometry" />
        </mxCell>
        <mxCell id="fY_PwHqfxWm9hgMFCMMJ-114" value="" style="endArrow=none;html=1;strokeWidth=1;curved=1;exitX=1;exitY=0.3333333333333333;exitDx=0;exitDy=0;exitPerimeter=0;entryX=0;entryY=0.5;entryDx=0;entryDy=0;" parent="1" source="fY_PwHqfxWm9hgMFCMMJ-111" target="fY_PwHqfxWm9hgMFCMMJ-113" edge="1">
          <mxGeometry width="50" height="50" relative="1" as="geometry">
            <mxPoint x="80" y="625" as="sourcePoint" />
            <mxPoint x="130" y="575" as="targetPoint" />
          </mxGeometry>
        </mxCell>
        <mxCell id="fY_PwHqfxWm9hgMFCMMJ-115" value="Курс" style="ellipse;whiteSpace=wrap;html=1;shadow=0;glass=0;sketch=0;strokeColor=default;strokeWidth=1;fillColor=default;gradientColor=none;" parent="1" vertex="1">
          <mxGeometry x="379.5" y="790" width="121" height="60" as="geometry" />
        </mxCell>
        <mxCell id="l2btpocBM2kwRpMdsqXY-13" value="&amp;lt;&amp;lt;extend&amp;gt;&amp;gt;" style="rounded=0;orthogonalLoop=1;jettySize=auto;html=1;entryX=0.5;entryY=1;entryDx=0;entryDy=0;dashed=1;" parent="1" source="fY_PwHqfxWm9hgMFCMMJ-121" target="fY_PwHqfxWm9hgMFCMMJ-125" edge="1">
          <mxGeometry relative="1" as="geometry" />
        </mxCell>
        <mxCell id="fY_PwHqfxWm9hgMFCMMJ-121" value="Вести курс" style="ellipse;whiteSpace=wrap;html=1;shadow=0;glass=0;sketch=0;strokeColor=default;strokeWidth=1;fillColor=default;gradientColor=none;" parent="1" vertex="1">
          <mxGeometry x="379.5" y="370" width="121" height="60" as="geometry" />
        </mxCell>
        <mxCell id="fY_PwHqfxWm9hgMFCMMJ-122" value="" style="endArrow=none;html=1;strokeWidth=1;curved=1;exitX=1;exitY=0.3333333333333333;exitDx=0;exitDy=0;exitPerimeter=0;entryX=0;entryY=0.5;entryDx=0;entryDy=0;" parent="1" source="fY_PwHqfxWm9hgMFCMMJ-110" target="fY_PwHqfxWm9hgMFCMMJ-121" edge="1">
          <mxGeometry width="50" height="50" relative="1" as="geometry">
            <mxPoint x="200" y="440" as="sourcePoint" />
            <mxPoint x="239.9999999999991" y="440" as="targetPoint" />
          </mxGeometry>
        </mxCell>
        <mxCell id="fY_PwHqfxWm9hgMFCMMJ-125" value="Оставить отзыв" style="ellipse;whiteSpace=wrap;html=1;shadow=0;glass=0;sketch=0;strokeColor=default;strokeWidth=1;fillColor=default;gradientColor=none;" parent="1" vertex="1">
          <mxGeometry x="379.5" y="260" width="121" height="60" as="geometry" />
        </mxCell>
        <mxCell id="fY_PwHqfxWm9hgMFCMMJ-129" value="" style="endArrow=none;html=1;strokeWidth=1;curved=1;exitX=1;exitY=0.5;exitDx=0;exitDy=0;entryX=0;entryY=0.3333333333333333;entryDx=0;entryDy=0;entryPerimeter=0;" parent="1" source="fY_PwHqfxWm9hgMFCMMJ-121" edge="1">
          <mxGeometry width="50" height="50" relative="1" as="geometry">
            <mxPoint x="681" y="320" as="sourcePoint" />
            <mxPoint x="760" y="580" as="targetPoint" />
          </mxGeometry>
        </mxCell>
        <mxCell id="fY_PwHqfxWm9hgMFCMMJ-130" value="Просмотр отзывов" style="ellipse;whiteSpace=wrap;html=1;shadow=0;glass=0;sketch=0;strokeColor=default;strokeWidth=1;fillColor=default;gradientColor=none;" parent="1" vertex="1">
          <mxGeometry x="370" y="540" width="140" height="55" as="geometry" />
        </mxCell>
        <mxCell id="fY_PwHqfxWm9hgMFCMMJ-131" value="" style="endArrow=none;html=1;strokeWidth=1;curved=1;" parent="1" target="fY_PwHqfxWm9hgMFCMMJ-130" edge="1">
          <mxGeometry width="50" height="50" relative="1" as="geometry">
            <mxPoint x="130" y="410" as="sourcePoint" />
            <mxPoint x="200.00000000000068" y="420" as="targetPoint" />
          </mxGeometry>
        </mxCell>
        <mxCell id="fY_PwHqfxWm9hgMFCMMJ-132" value="" style="endArrow=none;html=1;strokeWidth=1;curved=1;exitX=1;exitY=0.3333333333333333;exitDx=0;exitDy=0;exitPerimeter=0;entryX=0;entryY=1;entryDx=0;entryDy=0;" parent="1" source="fY_PwHqfxWm9hgMFCMMJ-111" target="fY_PwHqfxWm9hgMFCMMJ-130" edge="1">
          <mxGeometry width="50" height="50" relative="1" as="geometry">
            <mxPoint x="160" y="695" as="sourcePoint" />
            <mxPoint x="200.00000000000068" y="695" as="targetPoint" />
          </mxGeometry>
        </mxCell>
        <mxCell id="l2btpocBM2kwRpMdsqXY-6" value="Просмотр курсов" style="ellipse;whiteSpace=wrap;html=1;shadow=0;glass=0;sketch=0;strokeColor=default;strokeWidth=1;fillColor=default;gradientColor=none;" parent="1" vertex="1">
          <mxGeometry x="370" y="460" width="140" height="70" as="geometry" />
        </mxCell>
        <mxCell id="dTrDrg-PLD4O0svyLezm-3" value="&lt;div&gt;Факультативы&lt;/div&gt;" style="shape=umlActor;verticalLabelPosition=bottom;verticalAlign=top;html=1;outlineConnect=0;" vertex="1" parent="1">
          <mxGeometry x="760" y="540" width="30" height="60" as="geometry" />
        </mxCell>
        <mxCell id="dTrDrg-PLD4O0svyLezm-6" value="Просмотр курсов" style="ellipse;whiteSpace=wrap;html=1;shadow=0;glass=0;sketch=0;strokeColor=default;strokeWidth=1;fillColor=default;gradientColor=none;" vertex="1" parent="1">
          <mxGeometry x="383.5" y="620" width="140" height="45" as="geometry" />
        </mxCell>
        <mxCell id="dTrDrg-PLD4O0svyLezm-7" value="" style="endArrow=none;html=1;rounded=0;exitX=1;exitY=0.3333333333333333;exitDx=0;exitDy=0;exitPerimeter=0;entryX=0;entryY=0.5;entryDx=0;entryDy=0;" edge="1" parent="1" source="fY_PwHqfxWm9hgMFCMMJ-111" target="dTrDrg-PLD4O0svyLezm-6">
          <mxGeometry width="50" height="50" relative="1" as="geometry">
            <mxPoint x="590" y="640" as="sourcePoint" />
            <mxPoint x="640" y="590" as="targetPoint" />
          </mxGeometry>
        </mxCell>
        <mxCell id="dTrDrg-PLD4O0svyLezm-8" value="" style="endArrow=none;html=1;rounded=0;exitX=1;exitY=0.5;exitDx=0;exitDy=0;" edge="1" parent="1" source="dTrDrg-PLD4O0svyLezm-6">
          <mxGeometry width="50" height="50" relative="1" as="geometry">
            <mxPoint x="590" y="640" as="sourcePoint" />
            <mxPoint x="760" y="590" as="targetPoint" />
          </mxGeometry>
        </mxCell>
      </root>
    </mxGraphModel>
  </diagram>
</mxfile>
